# xmcd
#
# Track frame offsets:
#	150
#	15175
#	27772
#	46140
#	58427
#	76547
#	104440
#	124450
#	141000
#	194175
#
# Disc length: 2747 seconds
#
# Revision: 0
# Processed by: cddbd v1.5.2PL0 Copyright (c) Steve Scherf et al.
# Submitted via: EasyCDDAExtractor 16.0.8.1
#
DISCID=830ab90a
DTITLE=Legends Of Soul II
DYEAR=1900
DGENRE=
TTITLE0=Tyrone Davis - Moms Apple  Pie
TTITLE1=Impressions - It' All Right
TTITLE2=Dells - Oh What A Night
TTITLE3=Gene Chandler - Rainbow '65
TTITLE4=Rose Royce - I Wanna Get Next To You
TTITLE5=Dells - Stay In My Corner
TTITLE6=Tyrone Davis - Turning Point
TTITLE7=Rose Royce - I'm Going Down
TTITLE8=The Floaters - Float On
TTITLE9=Impressions - People Get Ready
EXTD=
EXTT0=
EXTT1=
EXTT2=
EXTT3=
EXTT4=
EXTT5=
EXTT6=
EXTT7=
EXTT8=
EXTT9=
PLAYORDER=
